# xmcd CD database file
#
# Track frame offsets:
#	150
#	2289
#	36031
#	69450
#	109157
#	148369
#	183494
#	213026
#	242426
#
# Disc length: 3583 seconds
#
# Revision: 0
# Processed by: cddbd v1.5.2PL0 Copyright (c) Steve Scherf et al.
# Submitted via: CDex 1.51
#
DISCID=720dfd09
DTITLE=Hiromi's Sonicbloom - Beyond Standard
DYEAR=2008
DGENRE=Jazz
TTITLE0=Intro: Softly as in a Morning Sunrise
TTITLE1=Softly as in a Morning Sunrise
TTITLE2=Clair de Lune
TTITLE3=Caravan
TTITLE4=Ue Wo Muite Aruko
TTITLE5=My Favorite Things
TTITLE6=Led Boots
TTITLE7=XYG
TTITLE8=I've Got Rhythm
EXTD=YEAR: 2008
EXTT0=
EXTT1=
EXTT2=
EXTT3=
EXTT4=
EXTT5=
EXTT6=
EXTT7=
EXTT8=
PLAYORDER=
